<svg width="83" height="59" viewBox="0 0 83 59" fill="none" xmlns="http://www.w3.org/2000/svg">
  <path
    d="M82.4072 56.0877C82.4948 54.9409 82.1755 53.9333 81.5434 52.9801C80.899 52.0094 80.5769 50.9607 81.0623 49.8044L81.1392 49.5412C81.4244 48.4993 81.294 47.5367 80.5195 46.7376C79.9383 46.1362 79.7792 45.4463 79.9491 44.6527C80.1737 43.6097 80.0999 42.6427 79.468 41.7076C78.9211 40.8961 78.8264 40.0003 79.2612 39.0403C79.6285 38.2345 79.8685 37.3642 80.1013 36.5066C80.2824 35.8384 80.2837 35.1308 80.0301 34.4805C79.8244 33.95 79.878 33.4685 80.0055 32.9463C80.1412 32.3956 80.2168 31.8269 80.2908 31.2637C80.3483 30.8302 80.2031 30.4469 79.878 30.1495C79.4502 29.7597 79.3022 29.2742 79.3734 28.7219C79.4586 28.0878 79.5818 27.4606 79.2489 26.8498C79.1898 26.7434 79.2243 26.5798 79.2337 26.4433C79.3161 25.3416 79.0364 24.3161 78.6016 23.3179C78.3522 22.7424 78.2468 22.1371 78.3124 21.5112C78.4387 20.2963 78.3618 19.0841 78.1495 17.8937C77.9205 16.6133 77.5598 15.3587 77.2884 14.0851C77.1937 13.6446 77.1323 13.1812 77.1597 12.7353C77.2157 11.8257 77.3255 10.9177 77.4475 10.0123C77.5958 8.92122 77.8643 7.86315 78.3372 6.85685C78.7911 5.8833 79.212 4.89337 79.6329 3.90475C79.7838 3.54748 79.9124 3.17798 80.0031 2.80149C80.1129 2.34878 80.1074 1.89192 79.8319 1.48027C79.4658 0.933445 78.9832 0.831242 78.5032 1.28941C78.1126 1.66699 77.7424 2.09808 77.4805 2.56978C76.9652 3.49704 76.3728 4.35593 75.6585 5.14014C75.1607 5.68697 74.9484 6.33884 74.9181 7.08331C74.8619 8.53009 74.5299 9.88559 73.476 10.9803C73.1756 11.2926 72.9126 11.6444 72.6699 12.0043C72.4258 12.3616 72.1695 12.7311 72.0308 13.1334C71.7005 14.0809 71.3413 15.0355 71.1727 16.02C70.9492 17.3302 70.6036 18.5986 70.254 19.8777C69.9635 20.9399 69.4671 21.8125 68.7186 22.5791C68.2443 23.0645 67.9123 23.64 67.7055 24.2752C67.4572 25.0361 67.2407 25.8052 67.0336 26.5785C66.9403 26.9303 66.8757 27.2944 66.8417 27.6556C66.6825 29.3845 66.5563 31.1165 66.3797 32.8413C66.3371 33.2503 66.3745 33.7046 66.089 34.0754L65.9672 33.9692C65.512 33.346 65.4571 32.6247 65.3871 31.8883C65.2252 30.162 65.0485 28.4398 65.1183 26.7013C65.1389 26.1763 65.1183 25.65 65.1345 25.125C65.1484 24.6954 64.9675 24.3764 64.641 24.12C64.5165 24.0232 64.3876 23.9333 64.2433 23.8267C64.2695 23.5035 64.2954 23.1857 64.3204 22.8695C64.3792 22.0977 64.2736 21.3806 63.7717 20.7329C63.5923 20.5038 63.5141 20.141 63.517 19.841C63.5236 19.0666 63.5963 18.2907 63.6584 17.5174C63.7063 16.8764 63.4744 16.3556 63.0247 15.9153C62.9097 15.8048 62.7601 15.7149 62.6778 15.5854C62.5491 15.3836 62.3625 15.1504 62.375 14.9405C62.4145 14.1919 62.4804 13.4378 62.6271 12.7043C62.7421 12.126 63.0067 11.5791 63.1727 11.0092C63.4715 9.97819 63.784 8.95157 64.0198 7.90574C64.1406 7.37114 63.8731 6.99749 63.4206 6.79461C62.9874 6.59675 62.6253 6.64436 62.2786 7.11497C61.682 7.92233 61.1241 8.76354 60.6169 9.62659C60.3934 10.0096 60.3016 10.4787 60.2015 10.9207C60.0355 11.6626 59.8574 12.4003 59.3008 12.9619C58.6988 13.5701 58.3698 14.3105 58.156 15.1191C58.1217 15.2528 58.0528 15.3781 57.9735 15.5718C57.5978 14.6092 57.4444 14.5151 56.63 14.7086C56.601 14.5778 56.5902 14.44 56.5395 14.3185C56.3134 13.7745 55.883 13.69 55.477 14.1248C55.3071 14.305 55.1343 14.512 55.0506 14.7398C54.7366 15.5976 54.42 16.4567 54.1745 17.3333C53.9306 18.2127 53.8072 19.1251 53.5701 20.0059C53.0464 21.9449 52.661 23.9247 51.8205 25.7712C51.7178 25.9961 51.6791 26.2525 51.6328 26.4979C51.3889 27.8194 51.426 29.1338 51.7068 30.4469C52.0427 32.0095 52.01 33.5803 51.7645 35.1513C51.6082 36.167 51.0092 36.951 50.3635 37.7025C49.3407 38.89 48.8937 40.2562 49.0212 41.8203C49.0827 42.5811 49.2448 43.3042 49.553 44.0037C50.0881 45.2116 50.2853 46.4483 49.8014 47.7288C49.7204 47.9418 49.6615 48.1682 49.6341 48.3929C49.5614 48.9603 49.5394 49.5167 49.7985 50.0717C49.9454 50.3894 50.0111 50.7711 50.0137 51.1256C50.0234 52.5206 49.9904 53.9143 49.9876 55.3091C49.9862 55.5559 50.0328 55.8097 50.1002 56.0483C50.1948 56.3947 50.3975 56.6784 50.7695 56.764C51.1721 56.8568 51.4192 56.595 51.6273 56.313C52.0001 55.807 52.2634 55.2478 52.3266 54.619C52.4419 53.4887 52.815 52.4444 53.2589 51.4092C53.4592 50.9378 53.5415 50.3962 53.5755 49.8808C53.6414 48.869 53.4179 47.8819 53.2067 46.8972C53.1546 46.6559 53.1164 46.3926 53.1586 46.1541C53.3685 44.9801 53.8197 43.8932 54.7178 43.0917C55.4566 42.4276 55.7638 41.6775 55.6364 40.7205C55.6074 40.4927 55.6252 40.2582 55.5771 40.0359C55.4252 39.3473 55.5157 38.6832 55.6705 38.0041C55.8817 37.07 56.1201 36.1306 56.1983 35.1802C56.3285 33.6021 56.5999 32.0588 56.9729 30.526C57.2334 29.4623 57.2375 28.4068 56.8564 27.3555C56.4862 26.3328 56.5191 25.2966 56.877 24.2617C57.0553 23.7448 57.1539 23.2021 57.3251 22.6826C57.5144 22.1071 57.6461 21.4963 58.1836 20.9113C58.2273 21.2428 58.2877 21.4568 58.2783 21.6654C58.2412 22.35 58.1931 23.0331 58.1246 23.7122C58.0383 24.5945 58.2276 25.3512 59.0145 25.8681C59.364 26.0957 59.5437 26.4246 59.6111 26.8281C59.6807 27.2332 59.8851 27.615 60.2346 27.7746C61.0626 28.155 61.2012 28.8626 61.278 29.6304L61.2987 29.8348C61.4618 31.201 61.7031 32.5334 62.3858 33.7714C62.6615 34.2706 62.6986 34.9046 62.8203 35.4813C62.9026 35.8591 62.8684 36.2751 63.0137 36.6228C63.3003 37.314 63.2524 38.0001 63.1797 38.7116C63.0302 40.2268 63.4415 41.102 64.7905 41.368C65.1238 41.4333 65.3102 41.6353 65.3418 41.9775C65.3761 42.3171 65.4211 42.6565 65.4652 42.9961C65.5803 43.8825 65.719 44.7661 66.2754 45.5105C66.6004 45.9455 67.0156 46.1967 67.5849 46.0656C68.0537 45.9565 68.4417 45.4806 68.4937 44.9012C68.5431 44.3776 68.5857 43.8484 68.5554 43.3263C68.4731 41.9026 68.8929 40.6251 69.5742 39.3978C69.769 39.0473 69.9225 38.6437 69.9772 38.248C70.076 37.5267 70.1102 36.7934 70.1322 36.0635C70.1719 34.7465 70.4106 33.5152 71.4757 32.5947L71.6143 32.4419C72.5711 31.1383 73.1128 29.7298 72.7769 28.0825C72.5204 26.8172 72.7413 25.5844 73.0799 24.3654C73.1458 24.1267 73.2443 23.8963 73.3295 23.6618C73.4459 23.9429 73.4459 24.1938 73.4459 24.4445C73.4474 25.2191 73.6859 25.8777 74.3562 26.34C74.5238 26.4558 74.665 26.6141 74.8004 26.7694C75.1324 27.1526 75.3089 27.5848 75.1638 28.0976C75.0294 28.5815 74.8937 29.0644 74.7455 29.5457C74.4577 30.4825 74.0368 31.4015 73.8984 32.3587C73.7024 33.7168 73.7695 35.098 74.3016 36.4112C74.4098 36.6826 74.5196 36.9729 74.5374 37.2607C74.573 37.9222 74.5921 38.5889 74.5497 39.2488C74.403 41.4742 75.013 43.4486 76.4595 45.1587C76.8352 45.6005 76.8679 46.0654 76.7282 46.626C76.5377 47.3949 76.4103 48.1872 76.3497 48.9769C76.2827 49.8251 76.6349 50.4905 77.4849 50.815L77.6028 50.938C77.6028 51.3688 77.607 51.8255 77.6001 52.2808C77.5933 52.8862 77.7947 53.4085 78.2553 53.8053C78.6172 54.1191 78.9889 54.4367 79.3986 54.6821C79.8169 54.9344 79.943 55.2576 79.8826 55.7157C79.825 56.1453 79.8033 56.5788 79.7745 57.0125C79.7513 57.3763 79.843 57.6969 80.1968 57.881C80.5244 58.0513 80.7644 57.8537 81.0096 57.6777L81.1425 57.6696L81.2303 57.7653C81.6319 58.1675 81.891 58.2354 82.2462 58.0337C82.5997 57.8319 82.6737 57.5375 82.5449 57.0247C82.4678 56.7192 82.3839 56.3947 82.4072 56.0877Z"
    fill="#11B0C8"
  />
  <path
    d="M40.3333 53.7252C40.199 52.8786 39.8509 52.1149 39.2421 51.4794C38.51 50.7092 38.063 49.8188 37.9945 48.7358C37.915 47.4922 37.1981 46.6726 36.0629 46.2362C35.6899 46.0919 35.4253 45.8969 35.2472 45.5586C35.0347 45.1548 34.7921 44.7624 34.6153 44.3437C34.3905 43.8133 33.9983 43.4562 33.4705 43.3401C32.8548 43.2023 32.5834 42.8301 32.4477 42.2833C32.397 42.0828 32.3285 41.8865 32.2982 41.6832C32.0914 40.3729 31.3714 39.4129 30.2417 38.7501C29.8812 38.5374 29.7016 38.2415 29.5316 37.8746C29.186 37.1314 28.8707 36.3392 28.3607 35.7174C27.6339 34.8323 26.7196 34.1505 25.4281 34.6578L25.265 34.6128C25.1088 34.287 24.9674 33.9243 24.77 33.5941C24.2874 32.7937 23.9721 32.723 23.1632 33.1866L23.0524 33.1934C22.9823 33.0488 22.907 32.8892 22.8275 32.7297C22.5506 32.179 22.3023 31.6101 21.9872 31.0812C21.7046 30.6064 21.3634 30.1758 20.6957 30.207C20.5258 30.2151 20.3488 30.057 20.0486 29.9168C20.3846 29.6846 20.5585 29.5307 20.7587 29.4326C21.3825 29.1229 21.8542 28.6728 22.09 28.0184C22.1969 27.7238 22.3958 27.5602 22.6631 27.4783C22.9907 27.3787 23.3279 27.2903 23.668 27.2601C24.5838 27.1782 25.1912 26.6356 25.6367 25.921C26.096 25.1846 26.4346 24.3775 26.5773 23.5075C26.65 23.0574 26.7295 22.6483 27.1956 22.3745C27.4163 22.245 27.5535 21.9026 27.6343 21.63C27.7331 21.2837 27.7757 20.9085 27.7716 20.5486C27.7647 19.9227 27.9224 19.3992 28.3747 18.9328C29.2029 18.0861 29.4372 17.0387 29.244 15.8892C29.0877 14.9606 28.9891 14.0511 29.336 13.1225C29.7486 12.0234 29.4853 11.0457 28.5407 10.3054C28.2515 10.0789 28.1444 9.82951 28.1938 9.48184C28.2239 9.27853 28.2445 9.0726 28.2539 8.86688C28.2869 8.16194 28.3279 7.457 28.3321 6.75076C28.3321 6.55705 28.2634 6.32797 28.147 6.17379C27.3258 5.08974 26.6662 4.75845 25.5078 5.16071C25.2691 5.24392 25.0291 5.33542 24.7826 5.37342C24.3836 5.43871 24.2424 5.31074 24.1998 4.9111C24.1697 4.61651 24.1656 4.31667 24.1052 4.02753C23.9844 3.42086 23.6322 3.12626 23.0056 3.09351C22.7779 3.08106 22.5436 3.0922 22.3201 3.13587C21.6278 3.27083 21.0328 3.1564 20.4707 2.68164C20.0759 2.34489 19.5878 2.11035 19.1203 1.86773C18.3072 1.44494 17.4696 1.06867 16.662 0.636269C16.1631 0.366348 15.6463 0.2244 15.0853 0.20409C14.811 0.193171 14.5287 0.231388 14.2599 0.183562C13.3689 0.0241433 12.6489 0.347349 11.9663 0.8778C11.2055 1.46831 10.4309 2.04352 9.63558 2.58773C8.59087 3.30359 7.45986 3.66217 6.18614 3.25729L5.91739 3.2027C5.39921 3.04044 4.93152 3.17409 4.45594 3.39487C3.68964 3.75215 3.05201 4.26207 2.5077 4.89341C2.18823 5.26576 1.86326 5.40749 1.36967 5.18255C0.930973 4.9847 0.67737 5.06659 0.468999 5.40901C-0.0298623 6.2286 -0.35219 7.58257 0.682859 8.55874C0.850171 8.71554 1.01748 8.87256 1.19446 9.01822C1.91157 9.60872 2.00862 10.3504 1.74404 11.1889C1.62898 11.5584 1.50141 11.9295 1.43291 12.3084C1.15449 13.8696 1.27679 15.3205 2.61485 16.4347C2.89436 16.6666 3.13303 16.9571 3.35655 17.246C3.75683 17.7629 4.05852 18.3124 3.87627 19.0147C3.73904 19.5436 3.6802 20.0917 3.54582 20.6196C3.43187 21.0655 3.43187 21.4675 3.69667 21.8659C3.7913 22.0076 3.85849 22.2107 3.84202 22.3745C3.79833 22.8025 3.89011 23.1884 4.0752 23.5675C4.27413 23.9724 4.29038 24.3749 4.16171 24.8247C3.95049 25.5583 4.03151 26.2728 4.55101 26.8904C4.773 27.1536 4.97324 27.4318 5.19523 27.6949C5.52568 28.085 5.68882 28.4981 5.5338 29.0218C5.35837 29.6136 5.45015 30.1782 5.7189 30.7466C6.28934 31.956 6.65953 33.2379 6.66502 34.5783C6.66634 35.3381 6.73902 36.1328 6.28122 36.8379C5.89456 37.4313 6.11522 38.0297 6.51001 38.4821C7.05849 39.1122 7.31495 39.8525 7.58897 40.6055C7.71786 40.9614 7.68778 41.2643 7.48621 41.5792C6.88152 42.5268 6.84858 43.544 7.09406 44.6132C7.26686 45.3645 7.60676 46.0327 8.01801 46.6654C8.31135 47.1165 8.53202 47.583 8.61436 48.1093C8.68308 48.5566 8.86115 48.9315 9.21774 49.2287C9.33015 49.3229 9.43972 49.4812 9.45202 49.6216C9.52601 50.3659 9.7043 51.0998 9.48912 51.8635C9.26977 52.6392 9.4507 53.0511 10.1623 53.4723C10.6394 53.7545 10.8149 54.1557 10.8423 54.6573C10.863 55.0445 10.8368 55.436 10.8562 55.8232C10.8946 56.5076 11.1043 57.1254 11.6528 57.5838C11.9009 57.7911 12.1683 58.0038 12.5192 57.8564C12.8769 57.7092 13.0224 57.3901 13.0292 57.0274C13.0387 56.5952 13.0183 56.1587 12.9895 55.7265C12.9401 54.9726 12.9675 54.2568 13.7464 53.8311L13.8478 53.7396C14.665 52.934 14.75 52.0882 14.1824 51.0874C13.7657 50.351 13.5751 49.5696 13.9479 48.7313C14.0946 48.4011 14.2169 48.037 14.2428 47.68C14.2661 47.3308 14.2345 46.934 14.0825 46.6287C13.7876 46.0397 13.3999 45.4942 13.0336 44.9406C12.4592 44.0734 12.1343 43.1887 12.7526 42.2012L12.8376 42.0145C13.4242 40.9496 13.4763 39.8859 12.813 38.832C12.6101 38.5099 12.584 38.2006 12.8116 37.8761C13.2352 37.2789 13.1515 36.6816 12.8211 36.0705C12.625 35.7107 12.4551 35.3315 12.3178 34.947C12.0546 34.2106 12.2932 33.7631 13.1748 33.4524C13.5244 33.8313 13.9014 34.2608 14.299 34.6714C14.8899 35.2793 15.6248 35.5139 16.4365 35.2837C17.048 35.1105 17.4099 35.3628 17.7074 35.81C18.024 36.2874 18.2928 36.7945 18.6177 37.2636C18.8768 37.6357 19.1592 38.0026 19.4883 38.3136C19.8324 38.6422 20.1011 38.5985 20.4452 38.2683C21.0841 37.6497 21.2211 37.6385 21.8313 38.2699C22.166 38.6204 22.5265 38.8698 23.0311 38.8102C23.4081 38.7636 23.648 38.9204 23.7974 39.2491C24.1168 39.9553 24.4596 40.6522 24.7529 41.3681C25.1205 42.268 25.7278 42.5517 26.6039 42.1835C26.7299 42.1304 26.8535 42.0691 26.9822 42.0171C27.4771 41.8182 27.5278 41.8083 27.8117 42.2855C28.1613 42.8732 28.4808 43.4816 28.7741 44.1005C29.1676 44.9257 29.8146 45.4669 30.6881 45.6195C31.2199 45.7137 31.4996 45.962 31.7135 46.3913C31.8246 46.6164 31.959 46.832 32.0701 47.0569C32.5856 48.0973 33.1697 49.0682 34.3747 49.4543L34.605 49.6015C35.1987 50.0105 35.7595 50.4344 35.7992 51.2527C35.8403 52.0657 36.1747 52.7991 36.4792 53.5409C36.6876 54.0469 36.9906 54.4546 37.4816 54.7165C37.8805 54.9305 38.1519 55.2495 38.3109 55.6806C38.463 56.0868 38.6468 56.4836 38.84 56.8708C39.1101 57.4082 39.6008 57.7424 39.9451 57.6522C40.303 57.5581 40.4921 57.1667 40.4743 56.4945C40.4675 56.1999 40.3153 55.8728 40.4016 55.6175C40.6227 54.9646 40.4321 54.347 40.3333 53.7252ZM19.4161 24.6439C19.2736 24.7339 19.0924 24.7708 18.9238 24.8077C18.5494 24.8948 18.1588 24.9317 17.7954 25.0518C17.3842 25.1883 16.9769 25.36 16.5986 25.5727C16.3078 25.7378 16.0268 25.9573 15.8171 26.2121C15.5154 26.5816 15.1604 26.838 14.6749 27.0317C14.5102 26.8941 14.3528 26.7316 14.1677 26.6076C13.356 26.0634 12.8652 26.0241 12.2168 26.508C12.0399 26.6404 11.8328 26.729 11.4833 26.9254C11.5491 26.4945 11.5669 26.2136 11.6396 25.9477C11.7068 25.7077 11.8438 25.4882 11.9329 25.2536C12.2072 24.5336 12.1235 24.2323 11.4626 23.8149C11.1912 23.6446 11.0882 23.4481 11.0953 23.1456C11.1063 22.6887 11.0994 22.2306 11.0966 21.7724C11.094 21.0974 10.8237 20.5929 10.1904 20.2887C9.76534 20.0841 9.72845 19.9369 9.83275 19.4678C9.8984 19.1815 9.95329 18.8869 9.98623 18.5938C10.1028 17.6065 9.60659 16.9193 8.87718 16.3342C8.75247 16.2347 8.6249 16.0451 8.62907 15.8992C8.64554 15.1998 8.41104 14.5003 8.68682 13.798C8.86094 13.352 8.57703 12.9947 8.27271 12.7069C7.79559 12.2597 7.73938 11.717 7.85728 11.1306C7.95455 10.6371 8.18225 10.4884 8.68001 10.5565C8.8157 10.577 8.95842 10.5797 9.08841 10.6179C10.2183 10.9575 11.108 10.5307 11.8949 9.76159C12.0251 9.6334 12.1622 9.50914 12.2897 9.37833C12.7216 8.93371 13.255 8.77691 13.8583 8.8398C14.2476 8.87933 14.6314 8.97192 15.0196 8.99245C15.5213 9.01975 16.0233 9.00075 16.5825 9.00075C17.6793 10.9819 18.1496 11.2193 19.8387 10.6083C20.2445 11.016 20.701 11.3857 20.4035 12.1055C20.2678 12.437 20.3912 12.7901 20.6283 13.0668C20.9546 13.4501 21.2809 13.8346 21.6388 14.1878C21.8814 14.4291 22.1776 14.6173 22.456 14.8342C22.2777 15.1272 22.1927 15.2827 22.0926 15.426C21.6855 16.011 21.6045 16.4201 22.0474 16.9245C22.6589 17.6186 22.3381 18.3495 22.3023 19.0791L22.216 19.259C21.7802 19.7473 21.3358 20.2313 20.9012 20.7209C20.4709 21.205 20.342 21.8104 20.2432 22.4199C20.1857 22.7798 20.1652 23.1469 20.1075 23.5081C20.0315 23.9757 19.8328 24.3847 19.4161 24.6439Z"
    fill="#11B0C8"
  />
  <path
    d="M46.5024 32.0524C46.2439 31.4453 46.014 30.8371 46.0557 30.1582C46.0845 29.6901 46.0437 29.2185 46.0614 28.7494C46.0753 28.3704 46.0902 27.9849 46.1762 27.6178C46.3291 26.967 46.5302 26.3254 46.7221 25.6836C46.812 25.3846 46.7926 25.1011 46.5942 24.8612C46.3125 24.5185 46.2819 24.1349 46.3773 23.7387C46.4961 23.2515 46.6554 22.7726 46.7871 22.288C46.8343 22.1145 46.888 21.9319 46.8788 21.7554C46.8649 21.4547 46.7435 21.1764 46.4395 21.0538C46.1151 20.9219 45.8251 21.0446 45.6026 21.2892C45.4498 21.4575 45.2904 21.6419 45.2079 21.8483C45.0614 22.2137 44.9567 22.5981 44.8603 22.9808C44.6722 23.7306 44.5016 24.4859 44.3229 25.2376L44.2609 25.4094C43.8958 25.9619 43.7689 26.5836 43.6835 27.2226C43.6401 27.5542 43.4611 27.7726 43.1433 27.957C42.6837 28.2253 42.2555 28.566 41.8728 28.934C41.5095 29.2824 41.2186 29.703 40.898 30.093C40.9072 29.8268 40.8925 29.5566 40.9397 29.2987C41.1046 28.4024 41.2956 27.5098 41.4725 26.6137C41.5605 26.1666 41.6561 25.7175 41.7135 25.2658C41.7422 25.0305 41.7386 24.7724 41.6701 24.5479C41.5847 24.2706 41.4124 24.0134 41.0648 23.9926C40.734 23.9708 40.508 24.1479 40.3485 24.4162C40.2947 24.508 40.2474 24.6053 40.2066 24.7034C39.7989 25.6951 39.3939 26.6875 38.9602 27.7465C38.8157 27.0993 38.546 26.6293 37.8056 26.7958C37.5462 26.3731 37.4822 25.9341 37.3942 25.5043C37.3239 25.1634 37.1579 24.8798 36.916 24.6318C36.7289 24.4399 36.4917 24.4399 36.2673 24.5208C36.0385 24.6045 35.8846 24.7654 35.8846 25.038C35.8846 25.2644 35.8485 25.4906 35.8317 25.7178C35.8038 26.095 35.7575 26.4731 35.7558 26.8503C35.7549 27.2448 35.7789 27.642 35.8252 28.0346C35.8947 28.6218 35.5287 29.0072 35.2154 29.4745C35.0608 29.1653 34.906 28.9164 34.8077 28.6464C34.7409 28.4656 34.7706 28.2539 34.728 28.0621C34.6604 27.7657 34.5584 27.4775 34.4898 27.1813C34.4121 26.8423 34.349 26.4996 34.2896 26.1587C34.261 25.9934 34.2693 25.8235 34.2387 25.6597C34.0905 24.869 33.8597 24.0929 33.8569 23.2776C33.856 23.023 33.8189 22.7604 33.7522 22.5141C33.6761 22.237 33.4658 22.0905 33.2507 22.1387C32.9756 22.2014 32.6994 22.2923 32.5511 22.5512C32.4011 22.8148 32.2612 23.0883 32.1555 23.3719C32.0442 23.671 31.9784 23.9863 31.8952 24.2954C31.8377 24.5117 31.7144 24.6453 31.4698 24.6335C31.0222 24.6136 30.7971 24.8888 30.6377 25.2424C30.5256 25.4933 30.4459 25.7587 30.3161 26.0005C29.9742 26.643 29.8879 27.2966 30.1706 27.981C30.267 28.2145 30.2892 28.4526 30.1994 28.6927C29.8907 29.5187 29.7425 30.4041 29.2422 31.1613C29.1431 31.3112 29.0559 31.4929 29.0411 31.6676C29.0151 31.9629 28.9448 32.3293 29.0828 32.551C29.3321 32.9446 29.3795 33.3354 29.3673 33.7644C29.3636 33.8543 29.3767 33.9488 29.398 34.0362C29.4703 34.3161 29.6945 34.5159 29.94 34.5287C30.2106 34.5414 30.3774 34.4052 30.4784 34.0615C30.5534 33.8107 30.6433 33.5789 30.8426 33.3881C31.0745 33.1644 31.1236 32.8699 31.0095 32.5818C30.9177 32.3456 30.9872 32.1702 31.1197 31.9901C31.2199 31.8547 31.3394 31.7285 31.4182 31.5831C31.4942 31.4405 31.5748 31.2776 31.5739 31.124C31.5693 30.6115 31.8499 30.2461 32.1521 29.8489C32.2577 29.9279 32.3208 30.0035 32.4014 30.0316C32.7711 30.156 32.9026 30.4569 33.0056 30.7814C33.151 31.2467 33.2632 31.724 33.4449 32.1747C33.6932 32.7955 33.9916 33.3964 34.2733 34.0053L34.3882 34.1478C34.5421 34.3078 34.7227 34.3513 34.9386 34.2795C35.2231 34.1877 35.3936 33.9977 35.3956 33.7105C35.3974 33.1035 35.3761 32.4954 35.3594 31.8875C35.35 31.5475 35.327 31.2066 35.3085 30.814C35.6356 30.985 35.7644 31.1795 35.7366 31.4721C35.7236 31.6076 35.7477 31.7483 35.7264 31.882C35.6421 32.4072 35.9904 32.6954 36.3408 32.9799C36.4751 33.0881 36.6419 33.09 36.7699 32.9735C37.1017 32.67 37.4269 32.3591 37.363 31.8475C37.3454 31.7149 37.3417 31.5703 37.3751 31.4421C37.5039 30.9504 37.4567 30.4777 37.2611 30.0141C37.1961 29.8614 37.1676 29.7151 37.2648 29.5288C37.4908 29.7307 37.7262 29.8732 37.8644 30.0796C38.1897 30.5595 38.4769 31.0649 38.7605 31.5702C38.9847 31.9692 39.1747 32.3855 39.3924 32.7881C39.5064 32.998 39.6751 33.1642 39.9437 33.1398C40.2162 33.1143 40.3988 32.9708 40.4748 32.6999C40.522 32.53 40.5916 32.3664 40.6601 32.1747L40.7204 32.24L40.7389 32.3746C40.7768 32.9963 41.1206 33.3789 41.7017 33.589C41.9045 33.6616 42.1028 33.749 42.2901 33.8517C43.05 34.2688 43.9108 34.1133 44.453 33.4526C44.5384 33.3491 44.619 33.2418 44.7393 33.0882C44.7904 33.3191 44.831 33.4945 44.8655 33.6699C44.9544 34.1035 45.1703 34.4679 45.4928 34.7688C45.7969 35.0523 46.211 35.0733 46.5596 34.8416C46.8662 34.637 47.0284 34.3734 46.9959 33.9945C46.937 33.3185 46.7665 32.675 46.5024 32.0524ZM31.6941 27.9823C31.9637 27.2779 32.2177 26.6181 32.4706 25.9573L32.5911 25.9872C32.5911 26.3344 32.5402 26.6907 32.605 27.0261C32.6662 27.335 32.8524 27.6215 33.0109 27.9822L31.6941 27.9823ZM43.8168 31.4271C43.6602 31.5543 43.5425 31.728 43.3943 31.868C43.1404 32.1096 42.8225 32.0668 42.7724 31.7479C42.7253 31.4526 42.8067 31.1335 42.8567 30.829C42.9059 30.5307 43.0319 30.3172 43.3674 30.1854C43.6668 30.0655 43.903 29.7937 44.2487 29.5282C44.3266 30.2629 44.4487 30.9116 43.8168 31.4271Z"
    fill="#11B0C8"
  />
</svg>
